<svg width="93" height="32" viewBox="0 0 93 32" fill="none" xmlns="http://www.w3.org/2000/svg">
  <rect x="12" y="20" width="81" height="11" fill="#F24E29" />
  <path
    d="M3.224 11V2.979H0.689V1.9H6.89V2.979H4.355V11H3.224ZM11.8571 11.156C11.1421 11.156 10.5376 11.0195 10.0436 10.7465C9.54962 10.4692 9.15312 10.103 8.85412 9.648C8.55512 9.18867 8.33628 8.68167 8.19762 8.127C8.06328 7.57233 7.99612 7.01333 7.99612 6.45C7.99612 5.88667 8.06328 5.32767 8.19762 4.773C8.33628 4.21833 8.55512 3.7135 8.85412 3.2585C9.15312 2.79917 9.54962 2.433 10.0436 2.16C10.5376 1.88267 11.1421 1.744 11.8571 1.744C12.5765 1.744 13.1831 1.88267 13.6771 2.16C14.1711 2.433 14.5676 2.79917 14.8666 3.2585C15.1656 3.7135 15.3823 4.21833 15.5166 4.773C15.651 5.32767 15.7181 5.88667 15.7181 6.45C15.7181 7.01333 15.651 7.57233 15.5166 8.127C15.3823 8.68167 15.1656 9.18867 14.8666 9.648C14.5676 10.103 14.1711 10.4692 13.6771 10.7465C13.1831 11.0195 12.5765 11.156 11.8571 11.156ZM11.8571 10.09C12.3598 10.09 12.7823 9.9795 13.1246 9.7585C13.467 9.5375 13.7421 9.24717 13.9501 8.8875C14.1625 8.5235 14.3141 8.12917 14.4051 7.7045C14.5005 7.2755 14.5481 6.85733 14.5481 6.45C14.5481 6.00367 14.5005 5.566 14.4051 5.137C14.3141 4.70367 14.1625 4.3115 13.9501 3.9605C13.7421 3.60517 13.467 3.3235 13.1246 3.1155C12.7823 2.90317 12.3598 2.797 11.8571 2.797C11.3588 2.797 10.9385 2.9075 10.5961 3.1285C10.2538 3.3495 9.97645 3.642 9.76412 4.006C9.55612 4.36567 9.40445 4.76 9.30912 5.189C9.21378 5.618 9.16612 6.03833 9.16612 6.45C9.16612 6.89633 9.21378 7.33617 9.30912 7.7695C9.40445 8.1985 9.55612 8.5885 9.76412 8.9395C9.97645 9.2905 10.2538 9.57 10.5961 9.778C10.9385 9.986 11.3588 10.09 11.8571 10.09ZM19.3652 11V2.979H16.8302V1.9H23.0312V2.979H20.4962V11H19.3652ZM23.0023 11L26.2263 1.9H27.2793L30.5033 11H29.3463L28.5663 8.777H24.9523L24.1853 11H23.0023ZM25.2903 7.776H28.2153L27.0453 4.409C27.0149 4.32233 26.9803 4.22267 26.9413 4.11C26.9066 3.993 26.8719 3.88033 26.8373 3.772C26.8026 3.65933 26.7766 3.564 26.7593 3.486C26.7376 3.564 26.7094 3.65933 26.6748 3.772C26.6444 3.88033 26.6098 3.993 26.5708 4.11C26.5361 4.22267 26.5036 4.32233 26.4733 4.409L25.2903 7.776ZM32.2996 11V1.9H33.4306V9.908H37.9026V11H32.2996ZM39.6783 11V1.9H40.8093V9.908H45.2813V11H39.6783ZM48.2291 11V7.425L45.1351 1.9H46.4091L48.7881 6.32L51.1931 1.9H52.4281L49.3601 7.399V11H48.2291ZM56.9903 11V1.9H60.5783C61.3063 1.9 61.8783 2.02567 62.2943 2.277C62.7146 2.52833 63.0114 2.85333 63.1848 3.252C63.3624 3.64633 63.4513 4.058 63.4513 4.487C63.4513 4.84667 63.3798 5.202 63.2368 5.553C63.0981 5.89967 62.8728 6.20517 62.5608 6.4695C62.2488 6.73383 61.8393 6.918 61.3323 7.022L63.2823 11H62.0083L60.1363 7.1H58.1213V11H56.9903ZM58.1213 6.047H60.6043C61.0289 6.047 61.3648 5.97117 61.6118 5.8195C61.8631 5.66783 62.0408 5.475 62.1448 5.241C62.2531 5.007 62.3073 4.76433 62.3073 4.513C62.3073 4.28767 62.2574 4.05583 62.1578 3.8175C62.0624 3.57483 61.8913 3.37117 61.6443 3.2065C61.3973 3.0375 61.0506 2.953 60.6043 2.953H58.1213V6.047ZM65.7528 11V1.9H71.1608V2.966H66.8838V5.761H69.7048V6.827H66.8838V9.921H71.4468V11H65.7528ZM73.1172 11L76.3412 1.9H77.3942L80.6182 11H79.4612L78.6812 8.777H75.0672L74.3002 11H73.1172ZM75.4052 7.776H78.3302L77.1602 4.409C77.1298 4.32233 77.0952 4.22267 77.0562 4.11C77.0215 3.993 76.9868 3.88033 76.9522 3.772C76.9175 3.65933 76.8915 3.564 76.8742 3.486C76.8525 3.564 76.8243 3.65933 76.7897 3.772C76.7593 3.88033 76.7247 3.993 76.6857 4.11C76.651 4.22267 76.6185 4.32233 76.5882 4.409L75.4052 7.776ZM82.4145 11V1.9H83.5455V9.908H88.0175V11H82.4145Z"
    fill="#FFF2D2" />
  <path
    d="M3.696 26.192C2.81067 26.192 2.11467 25.9467 1.608 25.456C1.10133 24.9653 0.848 24.2933 0.848 23.44C0.848 22.8907 0.973333 22.4133 1.224 22.008C1.47467 21.6027 1.82933 21.2907 2.288 21.072C2.74667 20.848 3.28533 20.736 3.904 20.736C4.304 20.736 4.67733 20.7813 5.024 20.872C5.376 20.9573 5.70667 21.088 6.016 21.264V20.688C6.016 20.0533 5.872 19.5893 5.584 19.296C5.296 18.9973 4.848 18.848 4.24 18.848C3.85067 18.848 3.44533 18.92 3.024 19.064C2.608 19.208 2.21867 19.408 1.856 19.664L1.456 18.496C1.86667 18.224 2.33333 18.0133 2.856 17.864C3.384 17.7093 3.904 17.632 4.416 17.632C5.38667 17.632 6.11467 17.88 6.6 18.376C7.08533 18.8667 7.328 19.6 7.328 20.576V26H6.016V25.248C5.696 25.552 5.336 25.7867 4.936 25.952C4.536 26.112 4.12267 26.192 3.696 26.192ZM3.904 24.976C4.28267 24.976 4.656 24.8827 5.024 24.696C5.39733 24.5093 5.728 24.2453 6.016 23.904V22.496C5.744 22.3253 5.43467 22.192 5.088 22.096C4.74133 22 4.41067 21.952 4.096 21.952C3.49867 21.952 3.02667 22.088 2.68 22.36C2.33333 22.6267 2.16 22.992 2.16 23.456C2.16 23.9253 2.31467 24.296 2.624 24.568C2.93333 24.84 3.36 24.976 3.904 24.976ZM13.057 26V17.824H14.449V18.656C14.6997 18.3093 15.001 18.0533 15.353 17.888C15.705 17.7173 16.1077 17.632 16.561 17.632C17.553 17.632 18.289 17.9333 18.769 18.536C19.249 19.1333 19.489 20.0533 19.489 21.296V26H18.097V21.056C18.097 20.368 17.9423 19.84 17.633 19.472C17.329 19.0987 16.897 18.912 16.337 18.912C15.713 18.912 15.241 19.0907 14.921 19.448C14.6063 19.8 14.449 20.3253 14.449 21.024V26H13.057ZM27.6228 26.192C26.7374 26.192 26.0414 25.9467 25.5348 25.456C25.0281 24.9653 24.7748 24.2933 24.7748 23.44C24.7748 22.8907 24.9001 22.4133 25.1508 22.008C25.4014 21.6027 25.7561 21.2907 26.2148 21.072C26.6734 20.848 27.2121 20.736 27.8308 20.736C28.2308 20.736 28.6041 20.7813 28.9508 20.872C29.3028 20.9573 29.6334 21.088 29.9428 21.264V20.688C29.9428 20.0533 29.7988 19.5893 29.5108 19.296C29.2228 18.9973 28.7748 18.848 28.1668 18.848C27.7774 18.848 27.3721 18.92 26.9508 19.064C26.5348 19.208 26.1454 19.408 25.7828 19.664L25.3828 18.496C25.7934 18.224 26.2601 18.0133 26.7828 17.864C27.3108 17.7093 27.8308 17.632 28.3428 17.632C29.3134 17.632 30.0414 17.88 30.5268 18.376C31.0121 18.8667 31.2548 19.6 31.2548 20.576V26H29.9428V25.248C29.6228 25.552 29.2628 25.7867 28.8628 25.952C28.4628 26.112 28.0494 26.192 27.6228 26.192ZM27.8308 24.976C28.2094 24.976 28.5828 24.8827 28.9508 24.696C29.3241 24.5093 29.6548 24.2453 29.9428 23.904V22.496C29.6708 22.3253 29.3614 22.192 29.0148 22.096C28.6681 22 28.3374 21.952 28.0228 21.952C27.4254 21.952 26.9534 22.088 26.6068 22.36C26.2601 22.6267 26.0868 22.992 26.0868 23.456C26.0868 23.9253 26.2414 24.296 26.5508 24.568C26.8601 24.84 27.2868 24.976 27.8308 24.976ZM36.8606 26V15.104L38.2526 14.448V26H36.8606ZM45.0401 29.104L46.2881 25.792L43.2641 17.824H44.6561L46.6881 23.392C46.7468 23.536 46.7948 23.6667 46.8321 23.784C46.8695 23.9013 46.9068 24.032 46.9441 24.176C46.9868 24.032 47.0268 23.9013 47.0641 23.784C47.1015 23.6667 47.1468 23.536 47.2001 23.392L49.2641 17.824H50.6881L46.4481 29.104H45.0401ZM58.0731 26.192C57.5131 26.192 57.0838 26.024 56.7851 25.688C56.4918 25.352 56.3451 24.8693 56.3451 24.24V19.04H55.0171V17.824H56.3451V15.12L57.7371 14.448V17.824H59.7531V19.04H57.7371V23.776C57.7371 24.1653 57.8038 24.4507 57.9371 24.632C58.0758 24.808 58.2918 24.896 58.5851 24.896C58.9585 24.896 59.3638 24.752 59.8011 24.464L59.6411 25.824C59.4011 25.952 59.1505 26.0453 58.8891 26.104C58.6331 26.1627 58.3611 26.192 58.0731 26.192ZM64.6555 26V17.824H66.0475V26H64.6555ZM65.3435 16.336C65.1035 16.336 64.8982 16.2533 64.7275 16.088C64.5622 15.9173 64.4795 15.712 64.4795 15.472C64.4795 15.2213 64.5622 15.0107 64.7275 14.84C64.8982 14.664 65.1035 14.576 65.3435 14.576C65.5942 14.576 65.8022 14.664 65.9675 14.84C66.1382 15.0107 66.2235 15.2213 66.2235 15.472C66.2235 15.712 66.1382 15.9173 65.9675 16.088C65.8022 16.2533 65.5942 16.336 65.3435 16.336ZM74.718 26.192C74.014 26.192 73.4087 26.0213 72.902 25.68C72.3953 25.3333 72.006 24.8427 71.734 24.208C71.462 23.568 71.326 22.8053 71.326 21.92C71.326 21.0293 71.4647 20.264 71.742 19.624C72.0193 18.984 72.414 18.4933 72.926 18.152C73.4433 17.8053 74.062 17.632 74.782 17.632C75.486 17.632 76.0833 17.7947 76.574 18.12C77.0647 18.4453 77.422 18.9173 77.646 19.536L76.334 20.016C76.2007 19.664 76.0007 19.3947 75.734 19.208C75.4727 19.0213 75.1607 18.928 74.798 18.928C74.1367 18.928 73.63 19.184 73.278 19.696C72.926 20.208 72.75 20.9493 72.75 21.92C72.75 22.8693 72.9233 23.6 73.27 24.112C73.6167 24.624 74.11 24.88 74.75 24.88C75.1607 24.88 75.51 24.7733 75.798 24.56C76.0913 24.3467 76.2967 24.048 76.414 23.664L77.71 24.096C77.5127 24.768 77.1527 25.2853 76.63 25.648C76.1073 26.0107 75.47 26.192 74.718 26.192ZM85.1698 26.192C84.5938 26.192 84.0391 26.0693 83.5058 25.824C82.9778 25.5733 82.5458 25.2373 82.2098 24.816L83.2018 23.968C83.4898 24.2773 83.8098 24.5173 84.1618 24.688C84.5138 24.8587 84.8604 24.944 85.2018 24.944C85.6818 24.944 86.0551 24.8533 86.3218 24.672C86.5884 24.4853 86.7218 24.2293 86.7218 23.904C86.7218 23.6907 86.6604 23.4987 86.5378 23.328C86.4204 23.1573 86.2231 22.9947 85.9458 22.84C85.6738 22.6853 85.3084 22.5227 84.8498 22.352C83.9484 22.016 83.3004 21.6507 82.9058 21.256C82.5164 20.8613 82.3218 20.3733 82.3218 19.792C82.3218 19.152 82.5751 18.632 83.0818 18.232C83.5938 17.832 84.2578 17.632 85.0738 17.632C85.6338 17.632 86.1484 17.7387 86.6178 17.952C87.0871 18.16 87.4898 18.464 87.8258 18.864L86.8658 19.664C86.3751 19.1413 85.7724 18.88 85.0578 18.88C84.6364 18.88 84.3031 18.9627 84.0578 19.128C83.8178 19.288 83.6978 19.5093 83.6978 19.792C83.6978 20.064 83.8338 20.304 84.1058 20.512C84.3831 20.7147 84.8818 20.9493 85.6018 21.216C86.1884 21.4293 86.6631 21.6613 87.0258 21.912C87.3938 22.1627 87.6604 22.448 87.8258 22.768C87.9964 23.088 88.0818 23.456 88.0818 23.872C88.0818 24.592 87.8231 25.16 87.3058 25.576C86.7884 25.9867 86.0764 26.192 85.1698 26.192Z"
    fill="#FFF2D2" />
</svg>